<?xml version="1.0" encoding="UTF-8" standalone="no"?>
<!-- Created with Inkscape (http://www.inkscape.org/) -->

<svg
   version="1.1"
   id="svg13701"
   xml:space="preserve"
   width="651.1994"
   height="518.09961"
   viewBox="0 0 651.1994 518.09959"
   sodipodi:docname="project_mind_map.svg"
   inkscape:version="1.1.2 (0a00cf5339, 2022-02-04)"
   xmlns:inkscape="http://www.inkscape.org/namespaces/inkscape"
   xmlns:sodipodi="http://sodipodi.sourceforge.net/DTD/sodipodi-0.dtd"
   xmlns="http://www.w3.org/2000/svg"
   xmlns:svg="http://www.w3.org/2000/svg"><defs
     id="defs13705" /><sodipodi:namedview
     id="namedview13703"
     pagecolor="#ffffff"
     bordercolor="#666666"
     borderopacity="1.0"
     inkscape:pageshadow="2"
     inkscape:pageopacity="1"
     inkscape:pagecheckerboard="0"
     showgrid="false"
     inkscape:zoom="0.34827789"
     inkscape:cx="-1330.8338"
     inkscape:cy="-179.4544"
     inkscape:window-width="1920"
     inkscape:window-height="1016"
     inkscape:window-x="0"
     inkscape:window-y="0"
     inkscape:window-maximized="1"
     inkscape:current-layer="g13707" /><g
     id="g13707"
     inkscape:groupmode="layer"
     inkscape:label="blank"
     transform="matrix(1.3333333,0,0,1.3333333,-72.167331,-319.95019)"><rect
       style="fill:#ffffff;stroke-width:1.00063;stroke-miterlimit:2.613;stroke-dasharray:3.00188, 3.00188"
       id="rect192"
       width="487.87726"
       height="388.12918"
       x="54.188877"
       y="240.07698" /><g
       id="g13709"><g
         id="g13711"><path
           d="m 286.125,240.352 h 72.418 c 0.645,0 1.168,0.523 1.168,1.168 v 35.043 c 0,0.644 -0.523,1.167 -1.168,1.167 h -72.418 c -0.645,0 -1.168,-0.523 -1.168,-1.167 V 241.52 c 0,-0.645 0.523,-1.168 1.168,-1.168 z"
           style="fill:#e3cff3;fill-opacity:1;fill-rule:nonzero;stroke:#730fc3;stroke-width:0.778707;stroke-linecap:round;stroke-linejoin:round;stroke-miterlimit:4;stroke-dasharray:none;stroke-opacity:1"
           id="path13713" /></g><text
         transform="translate(290.29587,252.2272)"
         style="font-variant:normal;font-weight:normal;font-size:7.0125px;font-family:'DIN Next W1G';-inkscape-font-specification:DINNextW1G-Regular;writing-mode:lr-tb;fill:#293845;fill-opacity:1;fill-rule:nonzero;stroke:none"
         id="text13721"><tspan
           x="0 5.7712874 9.9226875 13.723462 15.434512 17.117512 21.016462 22.755562 26.345963 28.288425 32.06115 33.744148 37.888538 41.528027 47.453587 51.226311 53.168774 54.907875 58.722675 62.432289"
           y="0"
           sodipodi:role="line"
           id="tspan13715">WP1: Field Sampling </tspan><tspan
           x="10.852447 14.491935 18.306734 22.07946 23.762459 29.056896 30.795998 34.105896 36.861809 40.480259 44.252983 45.992085 49.631573 51.574036"
           y="9.3444862"
           sodipodi:role="line"
           id="tspan13717">and Microbial </tspan><tspan
           x="1.2895497 5.2586246 8.8770742 14.802637 20.728199 24.507936 28.322737 30.061836 32.277786 35.622749 37.305748 41.562336 45.377136 49.016624 50.924026 54.212887 57.649014 59.388111"
           y="18.688972"
           sodipodi:role="line"
           id="tspan13719">Community Analysis</tspan></text><g
         id="g13723"><path
           d="m 286.125,329.125 h 72.418 c 0.645,0 1.168,0.523 1.168,1.168 v 35.043 c 0,0.644 -0.523,1.168 -1.168,1.168 h -72.418 c -0.645,0 -1.168,-0.524 -1.168,-1.168 v -35.043 c 0,-0.645 0.523,-1.168 1.168,-1.168 z"
           style="fill:#e3cff3;fill-opacity:1;fill-rule:nonzero;stroke:#730fc3;stroke-width:0.778707;stroke-linecap:round;stroke-linejoin:round;stroke-miterlimit:4;stroke-dasharray:none;stroke-opacity:1"
           id="path13725" /></g><text
         transform="translate(307.35074,340.99982)"
         style="font-variant:normal;font-weight:normal;font-size:7.0125px;font-family:'DIN Next W1G';-inkscape-font-specification:DINNextW1G-Regular;writing-mode:lr-tb;fill:#293845;fill-opacity:1;fill-rule:nonzero;stroke:none"
         id="text13733"><tspan
           x="0 5.7712874 9.9226875 13.723462 15.434512 17.117512 20.890238 24.529724 28.30245"
           y="0"
           sodipodi:role="line"
           id="tspan13727">WP2: Lab </tspan><tspan
           x="-15.222167 -10.88143 -7.1087046 -4.8927546 -3.1536546 2.771908 4.5110078 7.8559704 11.495458 13.711408 15.450508 19.068958 22.86272 24.545721 28.164171 30.394146 32.077145 36.221535 39.839985 41.579082 43.521545"
           y="9.3444862"
           sodipodi:role="line"
           id="tspan13729">Optimization of Soil </tspan><tspan
           x="-4.4012766 0.89316112 2.632261 5.9421611 8.6980734 12.316524 16.089249 17.828348 21.446798 27.37236 30.962761"
           y="18.688999"
           sodipodi:role="line"
           id="tspan13731">Microbiomes</tspan></text><g
         id="g13735"><path
           d="m 286.125,427.242 h 72.418 c 0.645,0 1.168,0.524 1.168,1.168 v 35.043 c 0,0.645 -0.523,1.168 -1.168,1.168 h -72.418 c -0.645,0 -1.168,-0.523 -1.168,-1.168 V 428.41 c 0,-0.644 0.523,-1.168 1.168,-1.168 z"
           style="fill:#e3cff3;fill-opacity:1;fill-rule:nonzero;stroke:#730fc3;stroke-width:0.778707;stroke-linecap:round;stroke-linejoin:round;stroke-miterlimit:4;stroke-dasharray:none;stroke-opacity:1"
           id="path13737" /></g><text
         transform="translate(296.77859,448.46143)"
         style="font-variant:normal;font-weight:normal;font-size:7.0125px;font-family:'DIN Next W1G';-inkscape-font-specification:DINNextW1G-Regular;writing-mode:lr-tb;fill:#293845;fill-opacity:1;fill-rule:nonzero;stroke:none"
         id="text13741"><tspan
           x="0 5.7712874 9.9226875 13.723462 15.434512 17.117512 21.016462 22.755562 26.345963 28.288425 32.06115 33.744148 37.509861 40.384987 42.124088 45.763577 47.706036"
           y="0"
           sodipodi:role="line"
           id="tspan13739">WP3: Field Trials</tspan></text><g
         id="g13743"><path
           d="m 197.352,492.652 h 72.421 c 0.645,0 1.168,0.524 1.168,1.168 v 35.043 c 0,0.645 -0.523,1.168 -1.168,1.168 h -72.421 c -0.645,0 -1.168,-0.523 -1.168,-1.168 V 493.82 c 0,-0.644 0.523,-1.168 1.168,-1.168 z"
           style="fill:#e3cff3;fill-opacity:1;fill-rule:nonzero;stroke:#730fc3;stroke-width:0.778707;stroke-linecap:round;stroke-linejoin:round;stroke-miterlimit:4;stroke-dasharray:none;stroke-opacity:1"
           id="path13745" /></g><text
         transform="translate(202.11896,504.52835)"
         style="font-variant:normal;font-weight:normal;font-size:7.0125px;font-family:'DIN Next W1G';-inkscape-font-specification:DINNextW1G-Regular;writing-mode:lr-tb;fill:#293845;fill-opacity:1;fill-rule:nonzero;stroke:none"
         id="text13753"><tspan
           x="0 5.7712874 9.9226875 13.723462 15.434512 17.117512 21.353062 23.092163 26.710613 28.449713 32.264511 34.47345 38.0919 40.967026 46.892586 50.532074 52.748024 54.487125 57.797024 61.23315"
           y="0"
           sodipodi:role="line"
           id="tspan13747">WP4: Bioinformatics </tspan><tspan
           x="3.9387038 7.5781913 11.392991 15.165716 16.848717 22.143154 25.733553 27.949503 31.588991 35.298603 38.889004 42.703804 46.322254 52.247818 53.986916 57.296818"
           y="9.3444862"
           sodipodi:role="line"
           id="tspan13749">and Metagenomic </tspan><tspan
           x="18.691299 22.947887 26.762688 30.402174 32.316586 35.60545 39.041576 40.780674"
           y="18.688936"
           sodipodi:role="line"
           id="tspan13751">Analysis</tspan></text><g
         id="g13755"><path
           d="m 197.352,590.77 h 72.421 c 0.645,0 1.168,0.523 1.168,1.168 v 35.042 c 0,0.645 -0.523,1.168 -1.168,1.168 h -72.421 c -0.645,0 -1.168,-0.523 -1.168,-1.168 v -35.042 c 0,-0.645 0.523,-1.168 1.168,-1.168 z"
           style="fill:#e3cff3;fill-opacity:1;fill-rule:nonzero;stroke:#730fc3;stroke-width:0.778707;stroke-linecap:round;stroke-linejoin:round;stroke-miterlimit:4;stroke-dasharray:none;stroke-opacity:1"
           id="path13757" /></g><text
         transform="translate(203.98318,607.31769)"
         style="font-variant:normal;font-weight:normal;font-size:7.0125px;font-family:'DIN Next W1G';-inkscape-font-specification:DINNextW1G-Regular;writing-mode:lr-tb;fill:#293845;fill-opacity:1;fill-rule:nonzero;stroke:none"
         id="text13763"><tspan
           x="0 5.7712874 9.9226875 13.723462 15.434512 17.117512 22.411949 26.030399 29.803125 33.393524 35.335987 37.075089 40.889889 44.599499 46.282501 49.921986 53.736786 57.509514"
           y="0"
           sodipodi:role="line"
           id="tspan13759">WP5: Modeling and </tspan><tspan
           x="14.237486 18.388885 21.137785 24.728186 28.500912 30.240011 33.549911 35.765862 37.504959 41.123409"
           y="9.3444862"
           sodipodi:role="line"
           id="tspan13761">Prediction</tspan></text><g
         id="g13765"><path
           d="m 322.336,281.234 v 15.575 m 0,10.902 v 16.742"
           style="fill:none;stroke:#788896;stroke-width:1.55742;stroke-linecap:round;stroke-linejoin:round;stroke-miterlimit:4;stroke-dasharray:none;stroke-opacity:1"
           id="path13767" /></g><g
         id="g13769"><path
           d="m 324.492,323.25 -2.156,2.758 -2.16,-2.758 z"
           style="fill:#788896;fill-opacity:1;fill-rule:nonzero;stroke:#788896;stroke-width:0.778707;stroke-linecap:round;stroke-linejoin:round;stroke-miterlimit:4;stroke-dasharray:none;stroke-opacity:1"
           id="path13771" /></g><text
         transform="translate(279.73605,304.78995)"
         style="font-variant:normal;font-weight:normal;font-size:7.0125px;font-family:'DIN Next W1G';-inkscape-font-specification:DINNextW1G-Regular;writing-mode:lr-tb;fill:#293845;fill-opacity:1;fill-rule:nonzero;stroke:none"
         id="text13775"><tspan
           x="0 3.969075 7.5875249 13.513087 19.43865 23.218388 27.033188 28.772287 30.988237 34.333199 36.016201 40.272789 44.045513 47.825249 51.640049 55.412773 59.052261 62.867062 66.0858 69.676201 71.3592 75.727989 79.367477 81.583427"
           y="0"
           sodipodi:role="line"
           id="tspan13773">Community Abundance Data</tspan></text><g
         id="g13777"><path
           d="M 281.453,259.039 H 173.992 c -3.226,0 -5.84,2.617 -5.84,5.844 v 109.015 m 0,20.25 V 505.5 c 0,3.227 2.614,5.844 5.84,5.844 h 17.52"
           style="fill:none;stroke:#788896;stroke-width:1.55742;stroke-linecap:round;stroke-linejoin:round;stroke-miterlimit:4;stroke-dasharray:none;stroke-opacity:1"
           id="path13779" /></g><g
         id="g13781"><path
           d="m 190.309,509.184 2.761,2.16 -2.761,2.156 z"
           style="fill:#788896;fill-opacity:1;fill-rule:nonzero;stroke:#788896;stroke-width:0.778707;stroke-linecap:round;stroke-linejoin:round;stroke-miterlimit:4;stroke-dasharray:none;stroke-opacity:1"
           id="path13783" /></g><text
         transform="translate(121.41191,381.88196)"
         style="font-variant:normal;font-weight:normal;font-size:7.0125px;font-family:'DIN Next W1G';-inkscape-font-specification:DINNextW1G-Regular;writing-mode:lr-tb;fill:#293845;fill-opacity:1;fill-rule:nonzero;stroke:none"
         id="text13789"><tspan
           x="0 5.2944374 7.0335374 10.343437 13.09935 16.7178 20.490524 22.229626 25.848076 31.773638 35.364037 37.047039 40.265774 43.884224 49.809788 55.735352 59.515087 63.329887 65.047951 67.263901 70.608864 72.291862 73.799553 77.417999 83.343559 85.082664 88.392563 91.82869"
           y="0"
           sodipodi:role="line"
           id="tspan13785">Microbiome community ‘omics </tspan><tspan
           x="29.071735 31.070297 35.439087 40.025261 44.281849 45.894722 47.598759 51.925472 56.511646 60.768234 62.766796"
           y="9.3444862"
           sodipodi:role="line"
           id="tspan13787">(DNA, RNA) </tspan></text><g
         id="g13791"><path
           d="m 322.336,370.008 v 23.75 m 0,10.902 v 17.91"
           style="fill:none;stroke:#788896;stroke-width:1.55742;stroke-linecap:round;stroke-linejoin:round;stroke-miterlimit:4;stroke-dasharray:none;stroke-opacity:1"
           id="path13793" /></g><g
         id="g13795"><path
           d="m 324.492,421.367 -2.156,2.758 -2.16,-2.758 z"
           style="fill:#788896;fill-opacity:1;fill-rule:nonzero;stroke:#788896;stroke-width:0.778707;stroke-linecap:round;stroke-linejoin:round;stroke-miterlimit:4;stroke-dasharray:none;stroke-opacity:1"
           id="path13797" /></g><text
         transform="translate(269.47009,401.73898)"
         style="font-variant:normal;font-weight:normal;font-size:7.0125px;font-family:'DIN Next W1G';-inkscape-font-specification:DINNextW1G-Regular;writing-mode:lr-tb;fill:#293845;fill-opacity:1;fill-rule:nonzero;stroke:none"
         id="text13801"><tspan
           x="0 5.2944374 7.0335374 10.343437 13.09935 16.7178 20.490524 22.229626 25.848076 31.773638 35.364037 37.047039 41.387775 45.1605 47.37645 49.115551 55.041111 56.759174 60.195301 63.834789 66.050735 67.789841 71.408287 75.223091 76.90609 80.503502 84.093903 87.684303 91.457024 95.229752 98.86924 102.17914"
           y="0"
           sodipodi:role="line"
           id="tspan13799">Microbiome Optimisation Feedback</tspan></text><g
         id="g13803"><path
           d="m 281.453,347.813 h -42.051 c -3.226,0 -5.839,2.617 -5.839,5.839 v 52.176 m 0,10.902 v 71.25"
           style="fill:none;stroke:#788896;stroke-width:1.55742;stroke-linecap:round;stroke-linejoin:round;stroke-miterlimit:4;stroke-dasharray:none;stroke-opacity:1"
           id="path13805" /></g><g
         id="g13807"><path
           d="m 235.719,486.777 -2.156,2.762 -2.157,-2.762 z"
           style="fill:#788896;fill-opacity:1;fill-rule:nonzero;stroke:#788896;stroke-width:0.778707;stroke-linecap:round;stroke-linejoin:round;stroke-miterlimit:4;stroke-dasharray:none;stroke-opacity:1"
           id="path13809" /></g><text
         transform="translate(207.30006,413.80896)"
         style="font-variant:normal;font-weight:normal;font-size:7.0125px;font-family:'DIN Next W1G';-inkscape-font-specification:DINNextW1G-Regular;writing-mode:lr-tb;fill:#293845;fill-opacity:1;fill-rule:nonzero;stroke:none"
         id="text13813"><tspan
           x="0 5.2944374 7.0335374 10.343437 13.09935 16.7178 20.490524 22.229626 25.869112 27.811575 29.494576 33.2673 36.009186"
           y="0"
           sodipodi:role="line"
           id="tspan13811">Microbial pro</tspan></text><text
         transform="translate(246.9277,413.80896)"
         style="font-variant:normal;font-weight:normal;font-size:7.0125px;font-family:'DIN Next W1G';-inkscape-font-specification:DINNextW1G-Regular;writing-mode:lr-tb;fill:#293845;fill-opacity:1;fill-rule:nonzero;stroke:none"
         id="text13817"><tspan
           x="0"
           y="0"
           id="tspan13815">ﬁ</tspan></text><text
         transform="translate(250.89678,413.80896)"
         style="font-variant:normal;font-weight:normal;font-size:7.0125px;font-family:'DIN Next W1G';-inkscape-font-specification:DINNextW1G-Regular;writing-mode:lr-tb;fill:#293845;fill-opacity:1;fill-rule:nonzero;stroke:none"
         id="text13821"><tspan
           x="0 1.9424624 5.5328627"
           y="0"
           sodipodi:role="line"
           id="tspan13819">les</tspan></text><g
         id="g13823"><path
           d="M 281.453,347.813 H 89.891 c -3.227,0 -5.84,2.617 -5.84,5.839 v 99.676 m 0,20.246 v 130.043 c 0,3.227 2.613,5.844 5.84,5.844 h 101.621"
           style="fill:none;stroke:#788896;stroke-width:1.55742;stroke-linecap:round;stroke-linejoin:round;stroke-miterlimit:4;stroke-dasharray:none;stroke-opacity:1"
           id="path13825" /></g><g
         id="g13827"><path
           d="m 190.309,607.301 2.761,2.16 -2.761,2.156 z"
           style="fill:#788896;fill-opacity:1;fill-rule:nonzero;stroke:#788896;stroke-width:0.778707;stroke-linecap:round;stroke-linejoin:round;stroke-miterlimit:4;stroke-dasharray:none;stroke-opacity:1"
           id="path13829" /></g><text
         transform="translate(54.219208,461.31009)"
         style="font-variant:normal;font-weight:normal;font-size:7.0125px;font-family:'DIN Next W1G';-inkscape-font-specification:DINNextW1G-Regular;writing-mode:lr-tb;fill:#293845;fill-opacity:1;fill-rule:nonzero;stroke:none"
         id="text13833"><tspan
           x="0 5.2944374 7.0335374 10.343437 13.09935 16.7178 20.490524 22.229626 25.848076 31.773638 35.364037 37.047039 41.296612"
           y="0"
           sodipodi:role="line"
           id="tspan13831">Microbiome Re</tspan></text><text
         transform="translate(99.10622,461.31009)"
         style="font-variant:normal;font-weight:normal;font-size:7.0125px;font-family:'DIN Next W1G';-inkscape-font-specification:DINNextW1G-Regular;writing-mode:lr-tb;fill:#293845;fill-opacity:1;fill-rule:nonzero;stroke:none"
         id="text13837"><tspan
           x="0"
           y="0"
           id="tspan13835">ﬁ</tspan></text><text
         transform="translate(103.0753,461.31009)"
         style="font-variant:normal;font-weight:normal;font-size:7.0125px;font-family:'DIN Next W1G';-inkscape-font-specification:DINNextW1G-Regular;writing-mode:lr-tb;fill:#293845;fill-opacity:1;fill-rule:nonzero;stroke:none"
         id="text13843"><tspan
           x="0 3.8148 7.4052"
           y="0"
           sodipodi:role="line"
           id="tspan13839">nes</tspan><tspan
           x="-49.638039 -45.486637 -42.737736 -39.147339 -35.374611 -33.635513 -30.325613 -28.109663 -26.370562 -23.060663 -19.470263 -17.787262 -12.492825 -8.8743744 -5.1016498 -1.5112499 0.41017514 2.3526378 4.0917377 7.9065375"
           y="9.3444862"
           sodipodi:role="line"
           id="tspan13841">Predictive Modelling</tspan></text><g
         id="g13845"><path
           d="m 322.336,468.125 v 5.84 m 0,20.246 V 505.5 c 0,3.227 -2.617,5.844 -5.84,5.844 h -40.883"
           style="fill:none;stroke:#788896;stroke-width:1.55742;stroke-linecap:round;stroke-linejoin:round;stroke-miterlimit:4;stroke-dasharray:none;stroke-opacity:1"
           id="path13847" /></g><g
         id="g13849"><path
           d="m 276.816,513.5 -2.761,-2.156 2.761,-2.16 z"
           style="fill:#788896;fill-opacity:1;fill-rule:nonzero;stroke:#788896;stroke-width:0.778707;stroke-linecap:round;stroke-linejoin:round;stroke-miterlimit:4;stroke-dasharray:none;stroke-opacity:1"
           id="path13851" /></g><text
         transform="translate(294.0448,481.94583)"
         style="font-variant:normal;font-weight:normal;font-size:7.0125px;font-family:'DIN Next W1G';-inkscape-font-specification:DINNextW1G-Regular;writing-mode:lr-tb;fill:#293845;fill-opacity:1;fill-rule:nonzero;stroke:none"
         id="text13855"><tspan
           x="0 3.8989501 5.6380501 9.2284498 11.170913 14.943638 16.626638 20.392349 23.267475 25.006575 28.646063 30.588526 34.024651 35.707649 39.964237"
           y="0"
           sodipodi:role="line"
           id="tspan13853">Field Trials Re</tspan></text><text
         transform="translate(337.59944,481.94583)"
         style="font-variant:normal;font-weight:normal;font-size:7.0125px;font-family:'DIN Next W1G';-inkscape-font-specification:DINNextW1G-Regular;writing-mode:lr-tb;fill:#293845;fill-opacity:1;fill-rule:nonzero;stroke:none"
         id="text13859"><tspan
           x="0"
           y="0"
           id="tspan13857">ﬁ</tspan></text><text
         transform="translate(341.56851,481.94583)"
         style="font-variant:normal;font-weight:normal;font-size:7.0125px;font-family:'DIN Next W1G';-inkscape-font-specification:DINNextW1G-Regular;writing-mode:lr-tb;fill:#293845;fill-opacity:1;fill-rule:nonzero;stroke:none"
         id="text13865"><tspan
           x="0 3.8148 7.4052"
           y="0"
           sodipodi:role="line"
           id="tspan13861">ne </tspan><tspan
           x="-41.284332 -37.048782 -35.309685 -31.691233 -29.952133 -26.137333 -23.93541 -20.316959 -17.441833 -11.516271 -7.8767838 -5.6608338 -3.9217336 -0.61183363"
           y="9.3444862"
           sodipodi:role="line"
           id="tspan13863">Bioinformatics</tspan></text><g
         id="g13867"><path
           d="M 281.453,445.93 H 131.941 c -3.226,0 -5.839,2.617 -5.839,5.84 v 61.91 m 0,20.246 v 69.691 c 0,3.227 2.613,5.844 5.839,5.844 h 59.571"
           style="fill:none;stroke:#788896;stroke-width:1.55742;stroke-linecap:round;stroke-linejoin:round;stroke-miterlimit:4;stroke-dasharray:none;stroke-opacity:1"
           id="path13869" /></g><g
         id="g13871"><path
           d="m 190.309,607.301 2.761,2.16 -2.761,2.156 z"
           style="fill:#788896;fill-opacity:1;fill-rule:nonzero;stroke:#788896;stroke-width:0.778707;stroke-linecap:round;stroke-linejoin:round;stroke-miterlimit:4;stroke-dasharray:none;stroke-opacity:1"
           id="path13873" /></g><text
         transform="translate(98.650948,521.65991)"
         style="font-variant:normal;font-weight:normal;font-size:7.0125px;font-family:'DIN Next W1G';-inkscape-font-specification:DINNextW1G-Regular;writing-mode:lr-tb;fill:#293845;fill-opacity:1;fill-rule:nonzero;stroke:none"
         id="text13877"><tspan
           x="0 3.8989501 5.6380501 9.2284498 11.170913 14.943638 16.626638 20.392349 23.267475 25.006575 28.646063 30.588526 34.024651 35.707649 39.964237"
           y="0"
           sodipodi:role="line"
           id="tspan13875">Field Trials Re</tspan></text><text
         transform="translate(142.20559,521.65991)"
         style="font-variant:normal;font-weight:normal;font-size:7.0125px;font-family:'DIN Next W1G';-inkscape-font-specification:DINNextW1G-Regular;writing-mode:lr-tb;fill:#293845;fill-opacity:1;fill-rule:nonzero;stroke:none"
         id="text13881"><tspan
           x="0"
           y="0"
           id="tspan13879">ﬁ</tspan></text><text
         transform="translate(146.17466,521.65991)"
         style="font-variant:normal;font-weight:normal;font-size:7.0125px;font-family:'DIN Next W1G';-inkscape-font-specification:DINNextW1G-Regular;writing-mode:lr-tb;fill:#293845;fill-opacity:1;fill-rule:nonzero;stroke:none"
         id="text13887"><tspan
           x="0 3.8148"
           y="0"
           sodipodi:role="line"
           id="tspan13883">ne</tspan><tspan
           x="-50.687214 -46.535812 -43.786911 -40.196514 -36.423786 -34.684689 -31.374788 -29.158838 -27.419737 -24.109838 -20.519438 -18.836437 -13.542 -9.9235497 -6.150825 -2.560425 -0.63900006 1.3034625 3.0425625 6.8573623"
           y="9.3444862"
           sodipodi:role="line"
           id="tspan13885">Predictive Modelling</tspan></text><g
         id="g13889"><path
           d="m 233.563,533.535 v 12.848 m 0,20.246 v 19.469"
           style="fill:none;stroke:#788896;stroke-width:1.55742;stroke-linecap:round;stroke-linejoin:round;stroke-miterlimit:4;stroke-dasharray:none;stroke-opacity:1"
           id="path13891" /></g><g
         id="g13893"><path
           d="m 235.719,584.895 -2.156,2.761 -2.157,-2.761 z"
           style="fill:#788896;fill-opacity:1;fill-rule:nonzero;stroke:#788896;stroke-width:0.778707;stroke-linecap:round;stroke-linejoin:round;stroke-miterlimit:4;stroke-dasharray:none;stroke-opacity:1"
           id="path13895" /></g><text
         transform="translate(199.46757,554.3656)"
         style="font-variant:normal;font-weight:normal;font-size:7.0125px;font-family:'DIN Next W1G';-inkscape-font-specification:DINNextW1G-Regular;writing-mode:lr-tb;fill:#293845;fill-opacity:1;fill-rule:nonzero;stroke:none"
         id="text13899"><tspan
           x="0 5.2944374 8.8848372 11.100787 14.740275 18.449888 22.040287 25.855087 29.473537 35.399101 37.138199 40.448101 43.884224 45.567226 49.823814"
           y="0"
           sodipodi:role="line"
           id="tspan13897">Metagenomics Re</tspan></text><text
         transform="translate(252.88179,554.3656)"
         style="font-variant:normal;font-weight:normal;font-size:7.0125px;font-family:'DIN Next W1G';-inkscape-font-specification:DINNextW1G-Regular;writing-mode:lr-tb;fill:#293845;fill-opacity:1;fill-rule:nonzero;stroke:none"
         id="text13903"><tspan
           x="0"
           y="0"
           id="tspan13901">ﬁ</tspan></text><text
         transform="translate(256.85086,554.3656)"
         style="font-variant:normal;font-weight:normal;font-size:7.0125px;font-family:'DIN Next W1G';-inkscape-font-specification:DINNextW1G-Regular;writing-mode:lr-tb;fill:#293845;fill-opacity:1;fill-rule:nonzero;stroke:none"
         id="text13909"><tspan
           x="0 3.8148 7.4052"
           y="0"
           sodipodi:role="line"
           id="tspan13905">nes</tspan><tspan
           x="-53.901825 -49.750427 -47.001526 -43.411125 -39.638401 -37.899303 -34.589401 -32.373451 -30.634352 -27.324451 -23.734051 -22.051052 -16.756615 -13.138165 -9.3654394 -5.7750392 -3.8536141 -1.9111516 -0.17205168 3.6427484"
           y="9.3444862"
           sodipodi:role="line"
           id="tspan13907">Predictive Modelling</tspan></text><g
         id="g13911"><path
           d="M 280.672,604.785 H 391.25 c 3.227,0 5.84,-2.613 5.84,-5.84 v -89.937 m 0,-10.903 V 363 c 0,-3.227 -2.613,-5.844 -5.84,-5.844 h -26.863"
           style="fill:none;stroke:#788896;stroke-width:1.55742;stroke-linecap:round;stroke-linejoin:round;stroke-miterlimit:4;stroke-dasharray:none;stroke-opacity:1"
           id="path13913" /></g><g
         id="g13915"><path
           d="m 365.59,359.316 -2.762,-2.16 2.762,-2.156 z"
           style="fill:#788896;fill-opacity:1;fill-rule:nonzero;stroke:#788896;stroke-width:0.778707;stroke-linecap:round;stroke-linejoin:round;stroke-miterlimit:4;stroke-dasharray:none;stroke-opacity:1"
           id="path13917" /></g><text
         transform="translate(358.62884,506.08575)"
         style="font-variant:normal;font-weight:normal;font-size:7.0125px;font-family:'DIN Next W1G';-inkscape-font-specification:DINNextW1G-Regular;writing-mode:lr-tb;fill:#293845;fill-opacity:1;fill-rule:nonzero;stroke:none"
         id="text13921"><tspan
           x="0 4.1514001 6.9003 10.497712 13.842675 15.581775 19.3545 22.944901 26.381025 28.064026 30.294001 33.884399 37.4748 41.247524 45.020248 48.659737 51.969639 55.553024 57.236027 59.466 63.063412 65.938538 67.621536 69.564003 73.203491"
           y="0"
           sodipodi:role="line"
           id="tspan13919">Provides feedback for lab</tspan></text><g
         id="g13923"><path
           d="m 276,604.785 h 161.973 c 3.226,0 5.84,-2.613 5.84,-5.84 v -40.879 m 0,-20.25 v -81.375 c 0,-3.222 -2.614,-5.839 -5.84,-5.839 h -72.032"
           style="fill:none;stroke:#788896;stroke-width:1.55742;stroke-linecap:round;stroke-linejoin:round;stroke-miterlimit:4;stroke-dasharray:none;stroke-opacity:1"
           id="path13925" /></g><g
         id="g13927"><path
           d="m 367.145,452.762 -2.758,-2.16 2.758,-2.157 z"
           style="fill:#788896;fill-opacity:1;fill-rule:nonzero;stroke:#788896;stroke-width:0.778707;stroke-linecap:round;stroke-linejoin:round;stroke-miterlimit:4;stroke-dasharray:none;stroke-opacity:1"
           id="path13929" /></g><text
         transform="translate(416.0585,545.79981)"
         style="font-variant:normal;font-weight:normal;font-size:7.0125px;font-family:'DIN Next W1G';-inkscape-font-specification:DINNextW1G-Regular;writing-mode:lr-tb;fill:#293845;fill-opacity:1;fill-rule:nonzero;stroke:none"
         id="text13935"><tspan
           x="0 4.1514001 6.9003 10.497712 13.842675 15.581775 19.3545 22.944901 26.381025 28.064026 30.294001 33.884399 37.4748 41.247524 45.020248 48.659737 51.969639"
           y="0"
           sodipodi:role="line"
           id="tspan13931">Provides feedback</tspan><tspan
           x="15.931032 18.161007 21.758421 24.633545"
           y="9.3444862"
           sodipodi:role="line"
           id="tspan13933">for </tspan></text><text
         transform="translate(442.37505,555.14429)"
         style="font-variant:normal;font-weight:normal;font-size:7.0125px;font-family:'DIN Next W1G';-inkscape-font-specification:DINNextW1G-Regular;writing-mode:lr-tb;fill:#293845;fill-opacity:1;fill-rule:nonzero;stroke:none"
         id="text13939"><tspan
           x="0"
           y="0"
           id="tspan13937">ﬁ</tspan></text><text
         transform="translate(446.34412,555.14429)"
         style="font-variant:normal;font-weight:normal;font-size:7.0125px;font-family:'DIN Next W1G';-inkscape-font-specification:DINNextW1G-Regular;writing-mode:lr-tb;fill:#293845;fill-opacity:1;fill-rule:nonzero;stroke:none"
         id="text13943"><tspan
           x="0 3.5904 5.5328627"
           y="0"
           sodipodi:role="line"
           id="tspan13941">eld</tspan></text><g
         id="g13945"><path
           d="m 363.215,259.039 h 130.824 c 3.227,0 5.84,2.617 5.84,5.844 v 165.863 m 0,10.902 v 166.645 c 0,3.223 -2.613,5.84 -5.84,5.84 H 277.168"
           style="fill:none;stroke:#788896;stroke-width:1.55742;stroke-linecap:round;stroke-linejoin:round;stroke-miterlimit:4;stroke-dasharray:none;stroke-opacity:1"
           id="path13947" /></g><g
         id="g13949"><path
           d="m 278.375,616.289 -2.762,-2.156 2.762,-2.16 z"
           style="fill:#788896;fill-opacity:1;fill-rule:nonzero;stroke:#788896;stroke-width:0.778707;stroke-linecap:round;stroke-linejoin:round;stroke-miterlimit:4;stroke-dasharray:none;stroke-opacity:1"
           id="path13951" /></g><text
         transform="translate(457.28131,438.72757)"
         style="font-variant:normal;font-weight:normal;font-size:7.0125px;font-family:'DIN Next W1G';-inkscape-font-specification:DINNextW1G-Regular;writing-mode:lr-tb;fill:#293845;fill-opacity:1;fill-rule:nonzero;stroke:none"
         id="text13955"><tspan
           x="0 3.969075 7.5875249 13.513087 19.43865 23.218388 27.033188 28.772287 30.988237 34.333199 36.016201 40.272789 44.045513 47.825249 51.640049 55.412773 59.052261 62.867062 66.0858 69.676201 71.3592 75.727989 79.367477 81.583427"
           y="0"
           sodipodi:role="line"
           id="tspan13953">Community Abundance Data</tspan></text><g
         id="g13957"><path
           d="m 364.773,441.258 h 73.2 c 3.226,0 5.84,-2.613 5.84,-5.84 v -29.203 m 0,-20.246 V 363 c 0,-3.227 -2.614,-5.844 -5.84,-5.844 h -73.586"
           style="fill:none;stroke:#788896;stroke-width:1.55742;stroke-linecap:round;stroke-linejoin:round;stroke-miterlimit:4;stroke-dasharray:none;stroke-opacity:1"
           id="path13959" /></g><g
         id="g13961"><path
           d="m 365.59,359.316 -2.762,-2.16 2.762,-2.156 z"
           style="fill:#788896;fill-opacity:1;fill-rule:nonzero;stroke:#788896;stroke-width:0.778707;stroke-linecap:round;stroke-linejoin:round;stroke-miterlimit:4;stroke-dasharray:none;stroke-opacity:1"
           id="path13963" /></g><text
         transform="translate(425.97079,393.9519)"
         style="font-variant:normal;font-weight:normal;font-size:7.0125px;font-family:'DIN Next W1G';-inkscape-font-specification:DINNextW1G-Regular;writing-mode:lr-tb;fill:#293845;fill-opacity:1;fill-rule:nonzero;stroke:none"
         id="text13969"><tspan
           x="0 3.8989501 5.6380501 9.2284498 11.170913 14.943638 16.626638 20.392349 23.267475 25.006575 28.646063 30.588526 34.024651"
           y="0"
           sodipodi:role="line"
           id="tspan13965">Field Trials </tspan><tspan
           x="-13.010922 -8.7473221"
           y="9.3445139"
           sodipodi:role="line"
           id="tspan13967">Re</tspan></text><text
         transform="translate(420.81387,403.29642)"
         style="font-variant:normal;font-weight:normal;font-size:7.0125px;font-family:'DIN Next W1G';-inkscape-font-specification:DINNextW1G-Regular;writing-mode:lr-tb;fill:#293845;fill-opacity:1;fill-rule:nonzero;stroke:none"
         id="text13973"><tspan
           x="0"
           y="0"
           id="tspan13971">ﬁ</tspan></text><text
         transform="translate(424.78295,403.29642)"
         style="font-variant:normal;font-weight:normal;font-size:7.0125px;font-family:'DIN Next W1G';-inkscape-font-specification:DINNextW1G-Regular;writing-mode:lr-tb;fill:#293845;fill-opacity:1;fill-rule:nonzero;stroke:none"
         id="text13977"><tspan
           x="0 3.8148 7.4052 9.0881996 12.860925 16.500412 20.273138 21.956137 26.100525 29.690926 31.633387 35.223789 38.533688 40.749638 42.488739 46.107189"
           y="0"
           sodipodi:role="line"
           id="tspan13975">ne Lab Selection</tspan></text><g
         id="g13979"><path
           d="m 276,604.785 h 40.496 c 3.223,0 5.84,-2.613 5.84,-5.84 v -33.093 m 0,-20.247 v -28.421 c 0,-3.227 -2.617,-5.84 -5.84,-5.84 h -40.883"
           style="fill:none;stroke:#788896;stroke-width:1.55742;stroke-linecap:round;stroke-linejoin:round;stroke-miterlimit:4;stroke-dasharray:none;stroke-opacity:1"
           id="path13981" /></g><g
         id="g13983"><path
           d="m 276.816,513.5 -2.761,-2.156 2.761,-2.16 z"
           style="fill:#788896;fill-opacity:1;fill-rule:nonzero;stroke:#788896;stroke-width:0.778707;stroke-linecap:round;stroke-linejoin:round;stroke-miterlimit:4;stroke-dasharray:none;stroke-opacity:1"
           id="path13985" /></g><text
         transform="translate(295.47568,553.58691)"
         style="font-variant:normal;font-weight:normal;font-size:7.0125px;font-family:'DIN Next W1G';-inkscape-font-specification:DINNextW1G-Regular;writing-mode:lr-tb;fill:#293845;fill-opacity:1;fill-rule:nonzero;stroke:none"
         id="text13989"><tspan
           x="0 5.2944374 8.9128876 12.685613 16.276012 18.197437 20.1399 21.879 25.6938 29.403412 31.086412 35.350014"
           y="0"
           sodipodi:role="line"
           id="tspan13987">Modelling Re</tspan></text><text
         transform="translate(334.41609,553.58691)"
         style="font-variant:normal;font-weight:normal;font-size:7.0125px;font-family:'DIN Next W1G';-inkscape-font-specification:DINNextW1G-Regular;writing-mode:lr-tb;fill:#293845;fill-opacity:1;fill-rule:nonzero;stroke:none"
         id="text13993"><tspan
           x="0"
           y="0"
           id="tspan13991">ﬁ</tspan></text><text
         transform="translate(338.38516,553.58691)"
         style="font-variant:normal;font-weight:normal;font-size:7.0125px;font-family:'DIN Next W1G';-inkscape-font-specification:DINNextW1G-Regular;writing-mode:lr-tb;fill:#293845;fill-opacity:1;fill-rule:nonzero;stroke:none"
         id="text13999"><tspan
           x="0 3.8148 7.4052"
           y="0"
           sodipodi:role="line"
           id="tspan13995">nes</tspan><tspan
           x="-37.980927 -32.686489 -29.09609 -26.88014 -23.240652 -19.53104 -15.940639 -12.125839 -8.50739 -2.5818272 -0.84272718 2.4671729"
           y="9.3444862"
           sodipodi:role="line"
           id="tspan13997">Metagenomics</tspan></text></g></g></svg>
